<?xml version="1.0" encoding="UTF-8" standalone="no"?>
<!-- Created with Inkscape (http://www.inkscape.org/) -->

<svg
   xmlns:dc="http://purl.org/dc/elements/1.1/"
   xmlns:cc="http://creativecommons.org/ns#"
   xmlns:rdf="http://www.w3.org/1999/02/22-rdf-syntax-ns#"
   xmlns:svg="http://www.w3.org/2000/svg"
   xmlns="http://www.w3.org/2000/svg"
   xmlns:sodipodi="http://sodipodi.sourceforge.net/DTD/sodipodi-0.dtd"
   xmlns:inkscape="http://www.inkscape.org/namespaces/inkscape"
   width="150"
   height="18"
   viewBox="0 0 150 18"
   id="svg2"
   version="1.1"
   inkscape:version="0.91 r13725"
   sodipodi:docname="email.svg">
  <defs
     id="defs4" />
  <sodipodi:namedview
     id="base"
     pagecolor="#ffffff"
     bordercolor="#666666"
     borderopacity="1.0"
     inkscape:pageopacity="0.0"
     inkscape:pageshadow="2"
     inkscape:zoom="6.14"
     inkscape:cx="100"
     inkscape:cy="10"
     inkscape:document-units="px"
     inkscape:current-layer="layer1"
     showgrid="false"
     units="px"
     inkscape:window-width="1920"
     inkscape:window-height="1008"
     inkscape:window-x="0"
     inkscape:window-y="35"
     inkscape:window-maximized="1" />
  <metadata
     id="metadata7">
    <rdf:RDF>
      <cc:Work
         rdf:about="">
        <dc:format>image/svg+xml</dc:format>
        <dc:type
           rdf:resource="http://purl.org/dc/dcmitype/StillImage" />
        <dc:title></dc:title>
      </cc:Work>
    </rdf:RDF>
  </metadata>
  <g
     inkscape:label="Layer 1"
     inkscape:groupmode="layer"
     id="layer1"
     transform="translate(0,-1034.3622)">
    <g
       id="g4227"
       transform="matrix(0.79999863,0,0,0.8,1.0000003,209.47244)">
      <path
         d="m 7.3303671,1048.925 0,-6.8743 q 0,-1.6685 -0.1668521,-2.2247 -0.1668521,-0.5561 -0.5450501,-0.8008 -0.378198,-0.2559 -1.1012236,-0.2559 -0.7341491,0 -1.7130145,0.5562 -0.9788655,0.5562 -1.8909901,1.3571 l 0,8.2424 -1.91323701292439,0 0,-11.6685 1.91323701292439,0 0,1.7353 q 0.8120134,-0.812 1.8909901,-1.4349 1.0789766,-0.6341 2.1690768,-0.6341 1.6907676,0 2.480534,0.9678 0.7897665,0.9566 0.7897665,3.248 l 0,7.7864 -1.913237,0 z"
         style="font-style:normal;font-variant:normal;font-weight:normal;font-stretch:normal;font-size:medium;line-height:125%;font-family:'Clear Sans';-inkscape-font-specification:'Clear Sans';letter-spacing:0px;word-spacing:0px;fill:#000000;fill-opacity:1;stroke:none;stroke-width:1px;stroke-linecap:butt;stroke-linejoin:miter;stroke-opacity:1"
         id="path4179"
         inkscape:connector-curvature="0" />
      <path
         d="m 15.161291,1034.2977 q 0,0.6674 -0.300334,0.9121 -0.300333,0.2336 -0.956618,0.2336 -0.700779,0 -0.967742,-0.3003 -0.266964,-0.3004 -0.266964,-0.8454 0,-0.5896 0.289211,-0.8565 0.28921,-0.2781 0.945495,-0.2781 0.678531,0 0.967742,0.267 0.28921,0.2558 0.28921,0.8676 z m -2.213571,14.6273 0,-11.6685 1.913237,0 0,11.6685 -1.913237,0 z"
         style="font-style:normal;font-variant:normal;font-weight:normal;font-stretch:normal;font-size:medium;line-height:125%;font-family:'Clear Sans';-inkscape-font-specification:'Clear Sans';letter-spacing:0px;word-spacing:0px;fill:#000000;fill-opacity:1;stroke:none;stroke-width:1px;stroke-linecap:butt;stroke-linejoin:miter;stroke-opacity:1"
         id="path4181"
         inkscape:connector-curvature="0" />
      <path
         d="m 25.517241,1048.925 -3.704115,-5.2391 -1.256953,1.3904 0,3.8487 -1.913237,0 0,-16.5628 1.913237,0 0,10.3448 4.738599,-5.4505 2.347052,0 -4.64961,5.1057 4.894327,6.5628 -2.3693,0 z"
         style="font-style:normal;font-variant:normal;font-weight:normal;font-stretch:normal;font-size:medium;line-height:125%;font-family:'Clear Sans';-inkscape-font-specification:'Clear Sans';letter-spacing:0px;word-spacing:0px;fill:#000000;fill-opacity:1;stroke:none;stroke-width:1px;stroke-linecap:butt;stroke-linejoin:miter;stroke-opacity:1"
         id="path4183"
         inkscape:connector-curvature="0" />
      <path
         d="m 39.532816,1043.1186 q 0,3.0367 -1.31257,4.594 -1.301446,1.5573 -3.804227,1.5573 -2.502781,0 -3.826474,-1.5351 -1.323693,-1.5461 -1.323693,-4.6162 0,-3.1257 1.323693,-4.6607 1.334817,-1.5351 3.826474,-1.5351 2.513904,0 3.815351,1.5684 1.301446,1.5573 1.301446,4.6274 z m -1.979978,0 q 0,-2.3804 -0.789767,-3.4594 -0.778643,-1.079 -2.347052,-1.079 -1.612903,0 -2.391546,1.0901 -0.778643,1.079 -0.778643,3.4483 0,2.2803 0.745272,3.3815 0.756396,1.1013 2.424917,1.1013 1.590656,0 2.358176,-1.0901 0.778643,-1.0901 0.778643,-3.3927 z"
         style="font-style:normal;font-variant:normal;font-weight:normal;font-stretch:normal;font-size:medium;line-height:125%;font-family:'Clear Sans';-inkscape-font-specification:'Clear Sans';letter-spacing:0px;word-spacing:0px;fill:#000000;fill-opacity:1;stroke:none;stroke-width:1px;stroke-linecap:butt;stroke-linejoin:miter;stroke-opacity:1"
         id="path4185"
         inkscape:connector-curvature="0" />
      <path
         d="m 50.689655,1045.7771 q 0,1.6352 -1.156841,2.5695 -1.156841,0.9233 -3.292547,0.9233 -1.457175,0 -2.614016,-0.5451 -1.156841,-0.5561 -1.690768,-1.5573 l 1.535039,-0.9343 q 0.878755,1.4126 2.825362,1.4126 1.268076,0 1.89099,-0.4783 0.634038,-0.4894 0.634038,-1.3125 0,-0.4895 -0.22247,-0.7898 -0.222469,-0.3115 -0.689655,-0.5339 -0.467186,-0.2336 -1.913237,-0.6229 -2.080089,-0.4783 -2.936596,-1.3237 -0.845384,-0.8454 -0.845384,-2.247 0,-1.5461 1.112347,-2.4805 1.112347,-0.9344 3.081202,-0.9344 1.523915,0 2.558398,0.6007 1.034483,0.6007 1.512792,1.446 l -1.523916,0.9344 q -0.912124,-1.3682 -2.591768,-1.3682 -0.956619,0 -1.624027,0.4227 -0.656285,0.4227 -0.656285,1.3126 0,0.7898 0.578421,1.1457 0.57842,0.356 1.813125,0.6563 1.979978,0.5117 2.736374,0.9566 0.756396,0.4449 1.112347,1.1012 0.367075,0.6452 0.367075,1.6463 z"
         style="font-style:normal;font-variant:normal;font-weight:normal;font-stretch:normal;font-size:medium;line-height:125%;font-family:'Clear Sans';-inkscape-font-specification:'Clear Sans';letter-spacing:0px;word-spacing:0px;fill:#000000;fill-opacity:1;stroke:none;stroke-width:1px;stroke-linecap:butt;stroke-linejoin:miter;stroke-opacity:1"
         id="path4187"
         inkscape:connector-curvature="0" />
      <path
         d="m 72.046721,1042.5958 q 0,2.9588 -1.134594,4.5606 -1.134594,1.5907 -3.125696,1.5907 -1.190211,0 -1.846496,-0.3449 -0.645161,-0.3448 -0.86763,-1.2347 -1.624027,1.2792 -3.303671,1.2792 -1.334817,0 -2.246941,-0.6451 -0.912125,-0.6452 -1.401558,-1.8576 -0.478309,-1.2125 -0.478309,-2.7587 0,-2.6696 1.234705,-4.149 1.234706,-1.4794 3.437153,-1.4794 1.37931,0 2.669633,0.9121 l 0,-0.5896 1.89099,0 0,8.0423 q 0,0.723 0.233593,0.99 0.244716,0.2558 0.83426,0.2558 1.078977,0 1.735262,-1.2013 0.656284,-1.2125 0.656284,-3.2814 0,-3.8154 -1.957731,-5.8621 -1.946607,-2.0467 -5.583982,-2.0467 -2.235818,0 -4.048943,1.0345 -1.813126,1.0345 -2.825362,2.8921 -1.012236,1.8576 -1.012236,4.0934 0,3.6374 2.091213,5.8176 2.102336,2.1802 5.750834,2.1802 2.680757,0 4.760846,-0.5006 l 0.367074,1.5907 q -2.057842,0.4783 -5.150167,0.4783 -2.847608,0 -5.005562,-1.1791 -2.157953,-1.168 -3.337041,-3.3482 -1.179088,-2.1913 -1.179088,-5.0611 0,-2.6585 1.223582,-4.861 1.223582,-2.2024 3.437152,-3.4483 2.213571,-1.2569 4.905451,-1.2569 4.404895,0 6.840935,2.5028 2.43604,2.4916 2.43604,6.8854 z m -7.085651,-2.4694 q -1.368187,-0.8788 -2.347053,-0.8788 -1.646273,0 -2.347052,0.99 -0.689655,0.99 -0.689655,2.9032 0,3.5262 2.625139,3.5262 1.123471,0 2.758621,-1.1791 l 0,-5.3615 z"
         style="font-style:normal;font-variant:normal;font-weight:normal;font-stretch:normal;font-size:medium;line-height:125%;font-family:'Clear Sans';-inkscape-font-specification:'Clear Sans';letter-spacing:0px;word-spacing:0px;fill:#000000;fill-opacity:1;stroke:none;stroke-width:1px;stroke-linecap:butt;stroke-linejoin:miter;stroke-opacity:1"
         id="path4189"
         inkscape:connector-curvature="0" />
      <path
         d="m 81.590661,1039.1475 q -0.311457,-0.1335 -0.889878,-0.1335 -0.856507,0 -1.657397,0.4005 -0.789766,0.3893 -1.846496,1.446 l 0,8.0645 -1.913237,0 0,-11.6685 1.913237,0 0,1.891 q 0.80089,-0.812 1.679644,-1.4349 0.889878,-0.634 1.968854,-0.634 0.723026,0 1.156841,0.2335 l -0.411568,1.8354 z"
         style="font-style:normal;font-variant:normal;font-weight:normal;font-stretch:normal;font-size:medium;line-height:125%;font-family:'Clear Sans';-inkscape-font-specification:'Clear Sans';letter-spacing:0px;word-spacing:0px;fill:#000000;fill-opacity:1;stroke:none;stroke-width:1px;stroke-linecap:butt;stroke-linejoin:miter;stroke-opacity:1"
         id="path4191"
         inkscape:connector-curvature="0" />
      <path
         d="m 93.325918,1043.1186 q 0,3.0367 -1.31257,4.594 -1.301446,1.5573 -3.804227,1.5573 -2.502781,0 -3.826474,-1.5351 -1.323693,-1.5461 -1.323693,-4.6162 0,-3.1257 1.323693,-4.6607 1.334817,-1.5351 3.826474,-1.5351 2.513905,0 3.815351,1.5684 1.301446,1.5573 1.301446,4.6274 z m -1.979978,0 q 0,-2.3804 -0.789766,-3.4594 -0.778643,-1.079 -2.347053,-1.079 -1.612903,0 -2.391546,1.0901 -0.778643,1.079 -0.778643,3.4483 0,2.2803 0.745273,3.3815 0.756396,1.1013 2.424916,1.1013 1.590657,0 2.358176,-1.0901 0.778643,-1.0901 0.778643,-3.3927 z"
         style="font-style:normal;font-variant:normal;font-weight:normal;font-stretch:normal;font-size:medium;line-height:125%;font-family:'Clear Sans';-inkscape-font-specification:'Clear Sans';letter-spacing:0px;word-spacing:0px;fill:#000000;fill-opacity:1;stroke:none;stroke-width:1px;stroke-linecap:butt;stroke-linejoin:miter;stroke-opacity:1"
         id="path4193"
         inkscape:connector-curvature="0" />
      <path
         d="m 103.74861,1048.925 0,-1.7352 q -0.88988,0.8899 -1.95773,1.4905 -1.06785,0.5896 -2.091211,0.5896 -1.167965,0 -1.902114,-0.4338 -0.723026,-0.445 -1.05673,-1.3237 -0.32258,-0.8899 -0.32258,-2.4583 l 0,-7.7976 1.913237,0 0,6.8855 q 0,1.6685 0.166852,2.2247 0.177975,0.5561 0.556173,0.812 0.378198,0.2447 1.101223,0.2447 0.72303,0 1.70189,-0.5562 0.97887,-0.5673 1.89099,-1.3571 l 0,-8.2536 1.91324,0 0,11.6685 -1.91324,0 z"
         style="font-style:normal;font-variant:normal;font-weight:normal;font-stretch:normal;font-size:medium;line-height:125%;font-family:'Clear Sans';-inkscape-font-specification:'Clear Sans';letter-spacing:0px;word-spacing:0px;fill:#000000;fill-opacity:1;stroke:none;stroke-width:1px;stroke-linecap:butt;stroke-linejoin:miter;stroke-opacity:1"
         id="path4195"
         inkscape:connector-curvature="0" />
      <path
         d="m 117.43048,1045.7771 q 0,1.6352 -1.15684,2.5695 -1.15684,0.9233 -3.29254,0.9233 -1.45718,0 -2.61402,-0.5451 -1.15684,-0.5561 -1.69077,-1.5573 l 1.53504,-0.9343 q 0.87876,1.4126 2.82536,1.4126 1.26808,0 1.89099,-0.4783 0.63404,-0.4894 0.63404,-1.3125 0,-0.4895 -0.22247,-0.7898 -0.22247,-0.3115 -0.68965,-0.5339 -0.46719,-0.2336 -1.91324,-0.6229 -2.08009,-0.4783 -2.9366,-1.3237 -0.84538,-0.8454 -0.84538,-2.247 0,-1.5461 1.11235,-2.4805 1.11234,-0.9344 3.0812,-0.9344 1.52391,0 2.5584,0.6007 1.03448,0.6007 1.51279,1.446 l -1.52392,0.9344 q -0.91212,-1.3682 -2.59177,-1.3682 -0.95661,0 -1.62402,0.4227 -0.65629,0.4227 -0.65629,1.3126 0,0.7898 0.57842,1.1457 0.57842,0.356 1.81313,0.6563 1.97998,0.5117 2.73637,0.9566 0.7564,0.4449 1.11235,1.1012 0.36707,0.6452 0.36707,1.6463 z"
         style="font-style:normal;font-variant:normal;font-weight:normal;font-stretch:normal;font-size:medium;line-height:125%;font-family:'Clear Sans';-inkscape-font-specification:'Clear Sans';letter-spacing:0px;word-spacing:0px;fill:#000000;fill-opacity:1;stroke:none;stroke-width:1px;stroke-linecap:butt;stroke-linejoin:miter;stroke-opacity:1"
         id="path4197"
         inkscape:connector-curvature="0" />
      <path
         d="m 128.46497,1045.7771 q 0,1.6352 -1.15684,2.5695 -1.15684,0.9233 -3.29255,0.9233 -1.45717,0 -2.61401,-0.5451 -1.15685,-0.5561 -1.69077,-1.5573 l 1.53504,-0.9343 q 0.87875,1.4126 2.82536,1.4126 1.26807,0 1.89099,-0.4783 0.63404,-0.4894 0.63404,-1.3125 0,-0.4895 -0.22247,-0.7898 -0.22247,-0.3115 -0.68966,-0.5339 -0.46718,-0.2336 -1.91324,-0.6229 -2.08008,-0.4783 -2.93659,-1.3237 -0.84539,-0.8454 -0.84539,-2.247 0,-1.5461 1.11235,-2.4805 1.11235,-0.9344 3.0812,-0.9344 1.52392,0 2.5584,0.6007 1.03448,0.6007 1.51279,1.446 l -1.52391,0.9344 q -0.91213,-1.3682 -2.59177,-1.3682 -0.95662,0 -1.62403,0.4227 -0.65628,0.4227 -0.65628,1.3126 0,0.7898 0.57842,1.1457 0.57842,0.356 1.81312,0.6563 1.97998,0.5117 2.73638,0.9566 0.75639,0.4449 1.11234,1.1012 0.36708,0.6452 0.36708,1.6463 z"
         style="font-style:normal;font-variant:normal;font-weight:normal;font-stretch:normal;font-size:medium;line-height:125%;font-family:'Clear Sans';-inkscape-font-specification:'Clear Sans';letter-spacing:0px;word-spacing:0px;fill:#000000;fill-opacity:1;stroke:none;stroke-width:1px;stroke-linecap:butt;stroke-linejoin:miter;stroke-opacity:1"
         id="path4199"
         inkscape:connector-curvature="0" />
      <path
         d="m 141.20135,1043.1186 q 0,3.0367 -1.31257,4.594 -1.30145,1.5573 -3.80423,1.5573 -2.50278,0 -3.82648,-1.5351 -1.32369,-1.5461 -1.32369,-4.6162 0,-3.1257 1.32369,-4.6607 1.33482,-1.5351 3.82648,-1.5351 2.5139,0 3.81535,1.5684 1.30145,1.5573 1.30145,4.6274 z m -1.97998,0 q 0,-2.3804 -0.78977,-3.4594 -0.77864,-1.079 -2.34705,-1.079 -1.6129,0 -2.39155,1.0901 -0.77864,1.079 -0.77864,3.4483 0,2.2803 0.74527,3.3815 0.7564,1.1013 2.42492,1.1013 1.59065,0 2.35817,-1.0901 0.77865,-1.0901 0.77865,-3.3927 z"
         style="font-style:normal;font-variant:normal;font-weight:normal;font-stretch:normal;font-size:medium;line-height:125%;font-family:'Clear Sans';-inkscape-font-specification:'Clear Sans';letter-spacing:0px;word-spacing:0px;fill:#000000;fill-opacity:1;stroke:none;stroke-width:1px;stroke-linecap:butt;stroke-linejoin:miter;stroke-opacity:1"
         id="path4201"
         inkscape:connector-curvature="0" />
      <path
         d="m 152.35819,1045.7771 q 0,1.6352 -1.15684,2.5695 -1.15684,0.9233 -3.29255,0.9233 -1.45717,0 -2.61402,-0.5451 -1.15684,-0.5561 -1.69076,-1.5573 l 1.53504,-0.9343 q 0.87875,1.4126 2.82536,1.4126 1.26807,0 1.89099,-0.4783 0.63404,-0.4894 0.63404,-1.3125 0,-0.4895 -0.22247,-0.7898 -0.22247,-0.3115 -0.68966,-0.5339 -0.46719,-0.2336 -1.91324,-0.6229 -2.08009,-0.4783 -2.93659,-1.3237 -0.84539,-0.8454 -0.84539,-2.247 0,-1.5461 1.11235,-2.4805 1.11235,-0.9344 3.0812,-0.9344 1.52392,0 2.5584,0.6007 1.03448,0.6007 1.51279,1.446 l -1.52391,0.9344 q -0.91213,-1.3682 -2.59177,-1.3682 -0.95662,0 -1.62403,0.4227 -0.65628,0.4227 -0.65628,1.3126 0,0.7898 0.57842,1.1457 0.57842,0.356 1.81312,0.6563 1.97998,0.5117 2.73638,0.9566 0.75639,0.4449 1.11234,1.1012 0.36708,0.6452 0.36708,1.6463 z"
         style="font-style:normal;font-variant:normal;font-weight:normal;font-stretch:normal;font-size:medium;line-height:125%;font-family:'Clear Sans';-inkscape-font-specification:'Clear Sans';letter-spacing:0px;word-spacing:0px;fill:#000000;fill-opacity:1;stroke:none;stroke-width:1px;stroke-linecap:butt;stroke-linejoin:miter;stroke-opacity:1"
         id="path4203"
         inkscape:connector-curvature="0" />
      <path
         d="m 157.9644,1047.8349 q 0,0.7008 -0.3337,0.9789 -0.32258,0.267 -1.03448,0.267 -0.78977,0 -1.06786,-0.3226 -0.26696,-0.3337 -0.26696,-0.9233 0,-0.6674 0.30033,-0.9566 0.31146,-0.3003 1.03449,-0.3003 0.75639,0 1.05673,0.3003 0.31145,0.2892 0.31145,0.9566 z"
         style="font-style:normal;font-variant:normal;font-weight:normal;font-stretch:normal;font-size:medium;line-height:125%;font-family:'Clear Sans';-inkscape-font-specification:'Clear Sans';letter-spacing:0px;word-spacing:0px;fill:#000000;fill-opacity:1;stroke:none;stroke-width:1px;stroke-linecap:butt;stroke-linejoin:miter;stroke-opacity:1"
         id="path4205"
         inkscape:connector-curvature="0" />
      <path
         d="m 169.92214,1047.123 q -0.54505,0.9344 -1.51279,1.5462 -0.96774,0.6007 -2.66964,0.6007 -2.56952,0 -3.87096,-1.5462 -1.30145,-1.5573 -1.30145,-4.6051 0,-3.0478 1.29032,-4.6162 1.29033,-1.5796 3.80423,-1.5796 2.88098,0 4.10456,2.1357 l -1.56841,0.9566 q -0.43381,-0.6785 -1.02336,-1.0567 -0.57842,-0.3782 -1.53504,-0.3782 -1.67964,0 -2.39154,1.2236 -0.70078,1.2125 -0.70078,3.3593 0,1.6351 0.3337,2.5473 0.33371,0.9121 1.03449,1.4015 0.7119,0.4895 1.802,0.4895 0.93437,0 1.52391,-0.3449 0.58955,-0.3559 1.11235,-1.0901 l 1.56841,0.9566 z"
         style="font-style:normal;font-variant:normal;font-weight:normal;font-stretch:normal;font-size:medium;line-height:125%;font-family:'Clear Sans';-inkscape-font-specification:'Clear Sans';letter-spacing:0px;word-spacing:0px;fill:#000000;fill-opacity:1;stroke:none;stroke-width:1px;stroke-linecap:butt;stroke-linejoin:miter;stroke-opacity:1"
         id="path4207"
         inkscape:connector-curvature="0" />
      <path
         d="m 181.40156,1047.123 q -0.54505,0.9344 -1.5128,1.5462 -0.96774,0.6007 -2.66963,0.6007 -2.56952,0 -3.87097,-1.5462 -1.30144,-1.5573 -1.30144,-4.6051 0,-3.0478 1.29032,-4.6162 1.29032,-1.5796 3.80423,-1.5796 2.88098,0 4.10456,2.1357 l -1.56841,0.9566 q -0.43382,-0.6785 -1.02336,-1.0567 -0.57842,-0.3782 -1.53504,-0.3782 -1.67964,0 -2.39155,1.2236 -0.70078,1.2125 -0.70078,3.3593 0,1.6351 0.33371,2.5473 0.3337,0.9121 1.03448,1.4015 0.7119,0.4895 1.802,0.4895 0.93438,0 1.52392,-0.3449 0.58954,-0.3559 1.11235,-1.0901 l 1.56841,0.9566 z"
         style="font-style:normal;font-variant:normal;font-weight:normal;font-stretch:normal;font-size:medium;line-height:125%;font-family:'Clear Sans';-inkscape-font-specification:'Clear Sans';letter-spacing:0px;word-spacing:0px;fill:#000000;fill-opacity:1;stroke:none;stroke-width:1px;stroke-linecap:butt;stroke-linejoin:miter;stroke-opacity:1"
         id="path4209"
         inkscape:connector-curvature="0" />
    </g>
  </g>
</svg>
