<?xml version="1.0" encoding="UTF-8" standalone="no"?>
<svg
   version="1.1"
   id="svg2"
   viewBox="0 0 110 18"
   height="18"
   width="110"
   sodipodi:docname="jabber.svg"
   inkscape:version="1.1.2 (0a00cf5339, 2022-02-04)"
   xmlns:inkscape="http://www.inkscape.org/namespaces/inkscape"
   xmlns:sodipodi="http://sodipodi.sourceforge.net/DTD/sodipodi-0.dtd"
   xmlns="http://www.w3.org/2000/svg"
   xmlns:svg="http://www.w3.org/2000/svg"
   xmlns:rdf="http://www.w3.org/1999/02/22-rdf-syntax-ns#"
   xmlns:cc="http://creativecommons.org/ns#"
   xmlns:dc="http://purl.org/dc/elements/1.1/">
  <sodipodi:namedview
     id="namedview257"
     pagecolor="#ffffff"
     bordercolor="#666666"
     borderopacity="1.0"
     inkscape:pageshadow="2"
     inkscape:pageopacity="0.0"
     inkscape:pagecheckerboard="0"
     showgrid="false"
     inkscape:zoom="5.8090909"
     inkscape:cx="82.801252"
     inkscape:cy="8.6932707"
     inkscape:window-width="2496"
     inkscape:window-height="1376"
     inkscape:window-x="64"
     inkscape:window-y="27"
     inkscape:window-maximized="1"
     inkscape:current-layer="svg2" />
  <defs
     id="defs4" />
  <metadata
     id="metadata7">
    <rdf:RDF>
      <cc:Work
         rdf:about="">
        <dc:format>image/svg+xml</dc:format>
        <dc:type
           rdf:resource="http://purl.org/dc/dcmitype/StillImage" />
      </cc:Work>
    </rdf:RDF>
  </metadata>
  <g
     aria-label="nikos@gnu.gr"
     id="text4166"
     style="font-size:17.3928px;line-height:125%;letter-spacing:0px;word-spacing:0px;stroke-width:1px">
    <path
       d="M 7.229303,13.645491 V 8.3970776 q 0,-1.2738867 -0.1273887,-1.6985156 Q 6.9745256,6.2739331 6.685778,6.0870964 6.3970303,5.8917671 5.8450128,5.8917671 q -0.5605101,0 -1.307857,0.4246289 Q 3.789809,6.7410249 3.0934176,7.3524905 V 13.645491 H 1.6326942 V 4.7367765 H 3.0934176 V 6.0616187 Q 3.7133758,5.4416605 4.5371558,4.9660761 5.3609359,4.4819992 6.1932085,4.4819992 q 1.2908718,0 1.8938448,0.7388542 0.6029731,0.7303617 0.6029731,2.4798328 v 5.9448048 z"
       style="font-family:'Clear Sans';-inkscape-font-specification:'Clear Sans'"
       id="path261" />
    <path
       d="m 13.199585,2.4777508 q 0,0.5095547 -0.229299,0.6963914 -0.2293,0.1783441 -0.730362,0.1783441 -0.535032,0 -0.738854,-0.2292996 -0.203822,-0.2292996 -0.203822,-0.6454359 0,-0.4501066 0.220807,-0.6539285 0.220807,-0.2123144 0.721869,-0.2123144 0.518047,0 0.738854,0.2038218 0.220807,0.1953293 0.220807,0.6624211 z M 11.509562,13.645491 V 4.7367765 h 1.460724 v 8.9087145 z"
       style="font-family:'Clear Sans';-inkscape-font-specification:'Clear Sans'"
       id="path263" />
    <path
       d="M 21.106175,13.645491 18.278147,9.6454865 17.318486,10.707059 v 2.938432 H 15.857762 V 1.0000423 h 1.460724 v 7.8980973 l 3.617838,-4.1613631 h 1.791934 l -3.549898,3.8980932 3.736734,5.0106213 z"
       style="font-family:'Clear Sans';-inkscape-font-specification:'Clear Sans'"
       id="path265" />
    <path
       d="m 31.806824,9.212365 q 0,2.318474 -1.002124,3.507435 -0.993632,1.188961 -2.904462,1.188961 -1.91083,0 -2.921446,-1.171976 -1.010617,-1.180468 -1.010617,-3.52442 0,-2.3864143 1.010617,-3.5583901 1.019109,-1.1719757 2.921446,-1.1719757 1.919323,0 2.912955,1.1974535 0.993631,1.1889608 0.993631,3.5329123 z m -1.511679,0 q 0,-1.8174116 -0.602973,-2.6411917 -0.59448,-0.82378 -1.791934,-0.82378 -1.231423,0 -1.825904,0.8322726 -0.59448,0.82378 -0.59448,2.6326991 0,1.740978 0.569002,2.581744 0.577496,0.840765 1.851382,0.840765 1.214439,0 1.800427,-0.832273 0.59448,-0.832272 0.59448,-2.590236 z"
       style="font-family:'Clear Sans';-inkscape-font-specification:'Clear Sans'"
       id="path267" />
    <path
       d="m 40.333372,11.242091 q 0,1.248409 -0.883228,1.961786 -0.883228,0.704884 -2.513803,0.704884 -1.112528,0 -1.995756,-0.416137 -0.883228,-0.424629 -1.290871,-1.188961 l 1.171975,-0.713376 q 0.670914,1.078557 2.157115,1.078557 0.968154,0 1.443738,-0.365181 0.484077,-0.373673 0.484077,-1.002124 0,-0.373673 -0.169851,-0.602973 -0.169852,-0.237792 -0.52654,-0.407644 Q 37.85354,10.112578 36.749504,9.815338 35.161392,9.4501572 34.507464,8.8047213 33.862028,8.1592854 33.862028,7.0892206 q 0,-1.1804683 0.849258,-1.8938449 0.849258,-0.7133765 2.352444,-0.7133765 1.163483,0 1.953293,0.4585992 0.789809,0.4585992 1.15499,1.1040351 L 39.00853,6.75801 q -0.696391,-1.044587 -1.97877,-1.044587 -0.730362,0 -1.239917,0.3227179 -0.501062,0.322718 -0.501062,1.0021242 0,0.602973 0.441614,0.8747355 0.441614,0.2717625 1.38429,0.5010621 1.511679,0.3906586 2.089174,0.7303617 0.577496,0.3397031 0.849258,0.8407652 0.280255,0.4925694 0.280255,1.2569014 z"
       style="font-family:'Clear Sans';-inkscape-font-specification:'Clear Sans'"
       id="path269" />
    <path
       d="m 56.630626,8.8132139 q 0,2.2590261 -0.866243,3.4819571 -0.866243,1.214438 -2.386414,1.214438 -0.908706,0 -1.409768,-0.26327 -0.49257,-0.263269 -0.662421,-0.942676 -1.239917,0.976647 -2.522296,0.976647 -1.019109,0 -1.715501,-0.49257 -0.696391,-0.492569 -1.070064,-1.41826 -0.365181,-0.925691 -0.365181,-2.1061595 0,-2.0382187 0.942676,-3.1677315 0.942676,-1.1295129 2.624206,-1.1295129 1.05308,0 2.038219,0.6963914 V 5.2123609 h 1.443738 v 6.1401341 q 0,0.552017 0.178344,0.755839 0.186837,0.195329 0.636944,0.195329 0.82378,0 1.324842,-0.917198 0.501062,-0.925691 0.501062,-2.5053105 0,-2.9129542 -1.494694,-4.4755885 -1.486201,-1.5626343 -4.263274,-1.5626343 -1.707008,0 -3.091298,0.7898097 -1.38429,0.7898097 -2.157115,2.2080702 -0.772824,1.4182605 -0.772824,3.1252687 0,2.7770727 1.596604,4.4416177 1.605097,1.664546 4.390663,1.664546 2.046711,0 3.634823,-0.382166 l 0.280255,1.214438 q -1.571127,0.365181 -3.932063,0.365181 -2.1741,0 -3.82166,-0.900213 -1.64756,-0.891721 -2.547774,-2.556266 -0.900213,-1.673038 -0.900213,-3.8641229 0,-2.0297261 0.934184,-3.7112565 0.934183,-1.6815304 2.624206,-2.6326991 1.690023,-0.9596613 3.745227,-0.9596613 3.363061,0 5.222935,1.91083 1.859875,1.9023374 1.859875,5.2569057 z M 51.220854,6.9278616 Q 50.176267,6.2569479 49.42892,6.2569479 q -1.256902,0 -1.791934,0.7558395 -0.52654,0.7558394 -0.52654,2.2165628 0,2.6921468 2.004249,2.6921468 0.85775,0 2.106159,-0.900213 z"
       style="font-family:'Clear Sans';-inkscape-font-specification:'Clear Sans'"
       id="path271" />
    <path
       d="m 66.176285,13.450161 q 0,1.791934 -0.89172,2.66667 -0.883229,0.883228 -2.938432,0.883228 -1.961786,0 -3.235673,-0.832273 l 0.543525,-1.180468 q 1.146498,0.798302 2.692148,0.798302 1.248409,0 1.800426,-0.52654 0.56051,-0.518047 0.56051,-1.7155 v -1.044587 q -0.501062,0.484077 -1.197453,0.815287 -0.696392,0.331211 -1.511679,0.331211 -1.639068,0 -2.496818,-1.163484 -0.85775,-1.171975 -0.85775,-3.3800455 0,-2.1740999 0.959661,-3.3970311 0.959661,-1.2229312 2.624207,-1.2229312 1.350319,0 2.479832,0.985139 V 4.7367765 h 1.469216 z M 64.707069,6.7410249 q -1.163483,-0.9596613 -2.292996,-0.9596613 -1.112527,0 -1.690023,0.8662429 -0.569002,0.866243 -0.569002,2.4203847 0,1.7155008 0.535032,2.4968178 0.535032,0.772825 1.588112,0.772825 1.222931,0 2.428877,-1.146498 z"
       style="font-family:'Clear Sans';-inkscape-font-specification:'Clear Sans'"
       id="path273" />
    <path
       d="M 74.660371,13.645491 V 8.3970776 q 0,-1.2738867 -0.127388,-1.6985156 -0.127389,-0.4246289 -0.416137,-0.6114656 -0.288747,-0.1953293 -0.840765,-0.1953293 -0.56051,0 -1.307857,0.4246289 -0.747347,0.4246289 -1.443738,1.0360945 V 13.645491 H 69.063763 V 4.7367765 h 1.460723 v 1.3248422 q 0.619958,-0.6199582 1.443738,-1.0955426 0.82378,-0.4840769 1.656053,-0.4840769 1.290872,0 1.893845,0.7388542 0.602973,0.7303617 0.602973,2.4798328 v 5.9448048 z"
       style="font-family:'Clear Sans';-inkscape-font-specification:'Clear Sans'"
       id="path275" />
    <path
       d="m 84.4693,13.645491 v -1.324842 q -0.679406,0.679406 -1.494694,1.138005 -0.815287,0.450107 -1.596604,0.450107 -0.891721,0 -1.452231,-0.331211 -0.552018,-0.339703 -0.806795,-1.010617 -0.246285,-0.679406 -0.246285,-1.876859 V 4.7367765 h 1.460724 v 5.2569057 q 0,1.2738868 0.127388,1.6985158 0.135881,0.424629 0.424629,0.619958 0.288748,0.186837 0.840765,0.186837 0.552018,0 1.299365,-0.424629 0.747347,-0.433122 1.443738,-1.036095 V 4.7367765 h 1.460723 v 8.9087145 z"
       style="font-family:'Clear Sans';-inkscape-font-specification:'Clear Sans'"
       id="path277" />
    <path
       d="m 90.762301,12.813218 q 0,0.535032 -0.254777,0.747347 -0.246285,0.203822 -0.78981,0.203822 -0.602973,0 -0.815287,-0.246285 -0.203822,-0.254777 -0.203822,-0.704884 0,-0.509555 0.2293,-0.730362 0.237792,-0.229299 0.789809,-0.229299 0.577496,0 0.806795,0.229299 0.237792,0.220807 0.237792,0.730362 z"
       style="font-family:'Clear Sans';-inkscape-font-specification:'Clear Sans'"
       id="path279" />
    <path
       d="m 100.26549,13.450161 q 0,1.791934 -0.891719,2.66667 -0.883228,0.883228 -2.938432,0.883228 -1.961785,0 -3.235672,-0.832273 l 0.543525,-1.180468 q 1.146498,0.798302 2.692147,0.798302 1.248409,0 1.800427,-0.52654 0.56051,-0.518047 0.56051,-1.7155 v -1.044587 q -0.501062,0.484077 -1.197454,0.815287 -0.696391,0.331211 -1.511678,0.331211 -1.639068,0 -2.496818,-1.163484 -0.857751,-1.171975 -0.857751,-3.3800455 0,-2.1740999 0.959662,-3.3970311 0.959661,-1.2229312 2.624206,-1.2229312 1.35032,0 2.479833,0.985139 V 4.7367765 h 1.469214 z M 98.796276,6.7410249 Q 97.632793,5.7813636 96.50328,5.7813636 q -1.112528,0 -1.690023,0.8662429 -0.569003,0.866243 -0.569003,2.4203847 0,1.7155008 0.535033,2.4968178 0.535032,0.772825 1.588112,0.772825 1.222931,0 2.428877,-1.146498 z"
       style="font-family:'Clear Sans';-inkscape-font-specification:'Clear Sans'"
       id="path281" />
    <path
       d="m 107.96826,6.1805147 q -0.23779,-0.1019109 -0.6794,-0.1019109 -0.65393,0 -1.2654,0.3057328 -0.60297,0.2972402 -1.40976,1.1040351 v 6.1571193 h -1.46073 V 4.7367765 h 1.46073 v 1.4437382 q 0.61146,-0.6199581 1.28238,-1.0955425 0.6794,-0.4840769 1.50318,-0.4840769 0.55202,0 0.88323,0.1783441 z"
       style="font-family:'Clear Sans';-inkscape-font-specification:'Clear Sans'"
       id="path283" />
  </g>
</svg>
